HIERARCHY
ROOT SpineBase
{
  OFFSET 0.000000 0.000000 0.000000
  CHANNELS 6 Xposition Yposition Zposition Zrotation Xrotation Yrotation
  JOINT SpineMid
  {
    OFFSET 0.000000 29.374217 -0.000000
    CHANNELS 3 Zrotation Xrotation Yrotation
    JOINT SpineShoulder
    {
      OFFSET -0.009017 21.753367 -0.630780
      CHANNELS 3 Zrotation Xrotation Yrotation
      JOINT Neck
      {
        OFFSET -0.007352 7.199615 -0.496173
        CHANNELS 3 Zrotation Xrotation Yrotation
        JOINT Head
        {
          OFFSET -2.781750 12.498455 0.165085
          CHANNELS 3 Zrotation Xrotation Yrotation
          End Site
          {
            OFFSET 0 0 0
          }
        }
      }
      JOINT ShoulderLeft
      {
        OFFSET -14.051812 -4.437762 5.358409
        CHANNELS 3 Zrotation Xrotation Yrotation
        JOINT ElbowLeft
        {
          OFFSET 3.326978 -25.303036 -8.742434
          CHANNELS 3 Zrotation Xrotation Yrotation
          JOINT WristLeft
          {
            OFFSET -4.254007 -20.471359 10.719809
            CHANNELS 3 Zrotation Xrotation Yrotation
            JOINT HandLeft
            {
              OFFSET -0.014377 -5.492737 -0.378281
              CHANNELS 3 Zrotation Xrotation Yrotation
              JOINT HandTipLeft
              {
                OFFSET -0.376212 -6.998788 0.502861
                CHANNELS 3 Zrotation Xrotation Yrotation
                End Site
                {
                  OFFSET 0 0 0
                }
              }
              JOINT ThumbLeft
              {
                OFFSET 2.466471 -1.064900 -4.250603
                CHANNELS 3 Zrotation Xrotation Yrotation
                End Site
                {
                  OFFSET 0 0 0
                }
              }
            }
          }
        }
      }
      JOINT ShoulderRight
      {
        OFFSET 10.928206 -4.261174 -11.181292
        CHANNELS 3 Zrotation Xrotation Yrotation
        JOINT ElbowRight
        {
          OFFSET 5.504230 -23.285279 -1.846467
          CHANNELS 3 Zrotation Xrotation Yrotation
          JOINT WristRight
          {
            OFFSET -2.102525 -20.938295 -4.782022
            CHANNELS 3 Zrotation Xrotation Yrotation
            JOINT HandRight
            {
              OFFSET -0.687675 -5.278102 0.669168
              CHANNELS 3 Zrotation Xrotation Yrotation
              JOINT HandTipRight
              {
                OFFSET 0.315655 -6.993316 0.144488
                CHANNELS 3 Zrotation Xrotation Yrotation
                End Site
                {
                  OFFSET 0 0 0
                }
              }
              JOINT ThumbRight
              {
                OFFSET 2.520928 -0.445078 -2.145797
                CHANNELS 3 Zrotation Xrotation Yrotation
                End Site
                {
                  OFFSET 0 0 0
                }
              }
            }
          }
        }
      }
    }
  }
  JOINT HipLeft
  {
    OFFSET -5.324727 0.457956 -0.002553
    CHANNELS 3 Zrotation Xrotation Yrotation
    JOINT KneeLeft
    {
      OFFSET 3.516366 -23.902766 7.065442
      CHANNELS 3 Zrotation Xrotation Yrotation
      JOINT AnkleLeft
      {
        OFFSET 8.838799 -33.598145 8.460548
        CHANNELS 3 Zrotation Xrotation Yrotation
        JOINT FootLeft
        {
          OFFSET -3.283930 -6.019047 -5.995032
          CHANNELS 3 Zrotation Xrotation Yrotation
          End Site
          {
            OFFSET 0 0 0
          }
        }
      }
    }
  }
  JOINT HipRight
  {
    OFFSET 5.260544 0.874243 -6.613715
    CHANNELS 3 Zrotation Xrotation Yrotation
    JOINT KneeRight
    {
      OFFSET 9.207936 -30.166354 7.496180
      CHANNELS 3 Zrotation Xrotation Yrotation
      JOINT AnkleRight
      {
        OFFSET 5.028016 -30.112484 5.582037
        CHANNELS 3 Zrotation Xrotation Yrotation
        JOINT FootRight
        {
          OFFSET -4.135471 -3.499889 -8.414620
          CHANNELS 3 Zrotation Xrotation Yrotation
          End Site
          {
            OFFSET 0 0 0
          }
        }
      }
    }
  }
}
MOTION
Frames: 8
Frame Time: 0.033333
6.829930 66.030046 341.484471 -0.000000 -0.000000 31.987350 0.000000 0.000000 -31.987350 -0.000000 0.000000 0.000000 -0.000000 0.000000 0.000000 0.000000 0.000000 0.000000 -0.000000 0.000000 0.000000 -0.000000 0.000000 0.000000 -0.000000 0.000000 0.000000 -0.000000 0.000000 0.000000 0.000000 0.000000 0.000000 0.000000 0.000000 0.000000 -0.000000 0.000000 0.000000 -0.000000 0.000000 0.000000 -0.000000 0.000000 0.000000 -0.000000 0.000000 0.000000 0.000000 0.000000 0.000000 0.000000 0.000000 0.000000 0.000000 0.000000 -31.987350 -0.000000 0.000000 0.000000 -0.000000 0.000000 0.000000 0.000000 0.000000 0.000000 0.000000 0.000000 -31.987350 -0.000000 0.000000 0.000000 -0.000000 0.000000 0.000000 0.000000 0.000000 0.000000
6.858067 66.035249 341.519749 0.030267 -0.048768 31.774755 -0.000051 0.057397 -31.774742 -0.000000 0.000000 0.000000 -0.000000 0.000000 0.000000 0.000000 0.000000 0.000000 -0.000000 0.000000 0.000000 -0.806972 -1.853666 -0.049906 0.805780 1.854185 0.023811 -0.611209 1.273396 -0.105630 0.000000 0.000000 0.000000 0.000000 0.000000 0.000000 -0.000000 0.000000 0.000000 -0.000000 0.000000 0.000000 -0.564761 0.963628 -0.192487 -2.166391 -4.061612 -0.114277 0.000000 0.000000 0.000000 0.000000 0.000000 0.000000 -0.000051 0.057397 -31.774742 -0.000000 0.000000 0.000000 -2.316521 6.355219 -0.970304 0.000000 0.000000 0.000000 -0.000051 0.057397 -31.774742 -0.000000 0.000000 0.000000 -1.048136 3.529868 -1.493024 0.000000 0.000000 0.000000
6.880821 66.040612 341.556048 0.055561 -0.098962 31.575136 0.004483 0.113404 -31.575093 -0.000000 0.000000 0.000000 -0.000000 0.000000 0.000000 0.000000 0.000000 0.000000 -0.000000 0.000000 0.000000 -1.244174 -2.881779 -0.082590 2.098355 3.991852 -0.093081 -1.765345 1.156914 -0.133578 0.000000 0.000000 0.000000 0.000000 0.000000 0.000000 -0.000000 0.000000 0.000000 1.034867 -0.354316 -0.197896 -2.086423 2.065007 -0.130062 -3.762306 -7.284344 -0.357317 0.000000 0.000000 0.000000 0.000000 0.000000 0.000000 0.004483 0.113404 -31.575093 -0.000000 0.000000 0.000000 -4.125675 11.458994 -1.560947 0.000000 0.000000 0.000000 0.004483 0.113404 -31.575093 0.456193 -0.900618 -0.062100 -2.089638 6.492673 -2.227295 0.000000 0.000000 0.000000
6.898194 66.046134 341.593370 0.075873 -0.150580 31.388280 0.013657 0.168061 -31.388200 -0.000000 0.000000 0.000000 -0.000000 0.000000 0.000000 0.000000 0.000000 0.000000 -0.516654 -0.890557 0.057586 -0.752701 -2.100173 -0.119984 2.478985 4.547910 -0.159236 -2.130191 1.461866 -0.158657 0.000000 0.000000 0.000000 0.000000 0.000000 0.000000 -0.000000 0.000000 0.000000 1.459711 -0.507622 -0.276589 -2.936950 2.802423 -0.154840 -4.786351 -9.736971 -0.608193 0.000000 0.000000 0.000000 0.000000 0.000000 0.000000 0.013657 0.168061 -31.388200 -0.960409 0.093820 -0.216907 -4.612977 15.285642 -1.683881 0.000000 0.000000 0.000000 0.527705 1.002572 -31.092620 0.596098 -2.288917 -0.387948 -2.534555 7.908099 -2.548872 0.000000 0.000000 0.000000
6.910184 66.051816 341.631713 0.091199 -0.203617 31.213983 0.027525 0.221403 -31.213874 -0.000000 0.000000 0.000000 -0.000000 0.000000 0.000000 0.000000 0.000000 0.000000 -1.071271 -2.162744 0.066032 0.229551 0.061032 -0.093918 2.374948 4.049517 -0.204270 -2.179079 1.605230 -0.155988 0.000000 0.000000 0.000000 0.000000 0.000000 0.000000 -0.000000 0.000000 0.000000 1.822843 -0.644599 -0.342350 -3.683445 3.390533 -0.166537 -5.233924 -11.482747 -0.785357 0.000000 0.000000 0.000000 0.000000 0.000000 0.000000 0.027525 0.221403 -31.213874 -1.172845 0.145957 -0.256232 -5.461198 18.130101 -1.824310 0.000000 0.000000 0.000000 0.833879 1.333934 -30.777581 0.584558 -3.054714 -0.567954 -2.706918 8.424619 -2.510653 0.000000 0.000000 0.000000
6.916793 66.057658 341.671079 0.101533 -0.258069 31.052058 0.046133 0.273459 -31.051940 -0.000000 0.000000 0.000000 -0.000000 0.000000 0.000000 0.000000 0.000000 0.000000 -1.825114 -3.939361 0.050407 1.832900 3.935749 -0.176162 1.822558 2.297374 -0.167865 -1.912442 1.591608 -0.122038 0.000000 0.000000 0.000000 0.000000 0.000000 0.000000 -0.000000 0.000000 0.000000 2.124363 -0.765015 -0.395565 -4.338493 3.850849 -0.171453 -5.095642 -12.568282 -0.837038 0.000000 0.000000 0.000000 0.000000 0.000000 0.000000 0.046133 0.273459 -31.051940 -1.334560 0.208590 -0.279759 -6.048058 20.057990 -1.881402 0.000000 0.000000 0.000000 1.210818 1.666354 -30.452761 0.464295 -3.825341 -0.778513 -2.614619 8.069510 -2.127824 0.000000 0.000000 0.000000
6.919991 66.070873 341.698981 0.101750 -0.304874 30.858064 0.069028 0.313905 -30.857983 -0.000000 0.000000 0.000000 -0.000000 0.000000 0.000000 0.000000 0.000000 0.000000 -3.159082 -7.098169 -0.039711 5.592200 11.823714 -0.508919 -0.223296 -1.777341 -0.371041 -0.232146 0.061115 0.118756 0.000000 0.000000 0.000000 0.000000 0.000000 0.000000 -0.000000 0.000000 0.000000 2.467805 -0.893230 -0.456563 -5.041125 4.185535 -0.148728 -3.459502 -12.687627 -0.560831 0.000000 0.000000 0.000000 0.000000 0.000000 0.000000 0.069028 0.313905 -30.857983 -1.482038 0.397101 -0.264750 -5.765957 19.391071 -1.843904 0.000000 0.000000 0.000000 1.764897 2.265997 -30.002529 0.584758 -4.931317 -1.023986 -3.291258 7.225632 -0.145667 0.000000 0.000000 0.000000
6.920483 66.070792 341.739009 0.107399 -0.365974 30.696791 0.094478 0.369520 -30.696752 -0.000000 0.000000 0.000000 -0.000000 0.000000 0.000000 0.000000 0.000000 0.000000 -4.567742 -10.431712 -0.221733 9.326180 19.504991 -1.436072 -1.677358 -5.511557 -0.601561 0.107563 -1.075179 0.293551 0.000000 0.000000 0.000000 0.000000 0.000000 0.000000 -0.000000 0.000000 0.000000 2.637092 -0.981422 -0.483300 -5.693053 4.335583 -0.157439 -1.924033 -11.627155 -0.212030 0.000000 0.000000 0.000000 0.000000 0.000000 0.000000 0.094478 0.369520 -30.696752 -1.356808 0.371694 -0.240443 -5.233144 18.180168 -2.003641 0.000000 0.000000 0.000000 2.153085 2.234341 -29.726533 -0.020222 -4.998368 -1.207088 -2.155765 4.583890 0.645778 0.000000 0.000000 0.000000
